PathFileType	4	(X/Y/Z)	/Users/itak/Documents/Research/Walk-IL/dataset/trc/00542_00009.trc
DataRate	CameraRate	NumFrames	NumMarkers	Units	OrigDataRate	OrigDataStartFrame	OrigNumFrames
100.000000	100.000000	4	53	mm	100.000000	455	910
Frame#	Time	RPSI			LPSI			L3			STRN			T10			C7			CLAV			RBAK			LBAK			LSHO			LUPA			LAEL			LAOL			LWTS			LWPS			LFRA			LIFD			LHPS			LHTS			RSHO			RUPA			RAEL			RAOL			RWTS			RWPS			RFRA			RIFD			RHTS			RHPS			RBHD			LFHD			RFHD			LBHD			LHIP			RHIP			RASI			LASI			LKNE			LTHI			LANK			LTIP			LTOE			LMT1			LMT5			LHEE			RKNE			RTHI			RANK			RTIP			RTOE			RMT1			RMT5			RHEE			
		X1	Y1	Z1	X2	Y2	Z2	X3	Y3	Z3	X4	Y4	Z4	X5	Y5	Z5	X6	Y6	Z6	X7	Y7	Z7	X8	Y8	Z8	X9	Y9	Z9	X10	Y10	Z10	X11	Y11	Z11	X12	Y12	Z12	X13	Y13	Z13	X14	Y14	Z14	X15	Y15	Z15	X16	Y16	Z16	X17	Y17	Z17	X18	Y18	Z18	X19	Y19	Z19	X20	Y20	Z20	X21	Y21	Z21	X22	Y22	Z22	X23	Y23	Z23	X24	Y24	Z24	X25	Y25	Z25	X26	Y26	Z26	X27	Y27	Z27	X28	Y28	Z28	X29	Y29	Z29	X30	Y30	Z30	X31	Y31	Z31	X32	Y32	Z32	X33	Y33	Z33	X34	Y34	Z34	X35	Y35	Z35	X36	Y36	Z36	X37	Y37	Z37	X38	Y38	Z38	X39	Y39	Z39	X40	Y40	Z40	X41	Y41	Z41	X42	Y42	Z42	X43	Y43	Z43	X44	Y44	Z44	X45	Y45	Z45	X46	Y46	Z46	X47	Y47	Z47	X48	Y48	Z48	X49	Y49	Z49	X50	Y50	Z50	X51	Y51	Z51	X52	Y52	Z52	X53	Y53	Z53	

456	4.55	-110.9655532836914	1009.102478027344	363.480224609375	-106.5029220581055	1012.555419921875	230.2452545166016	-108.1875686645508	1110.21826171875	289.986572265625	125.6246948242188	1294.112182617188	284.0768432617188	-118.4230346679688	1235.44140625	287.3927001953125	-65.20008850097656	1508.091064453125	299.6670837402344	108.5878372192383	1405.534423828125	286.6641235351562	-135.4886932373047	1384.51171875	388.8258972167969	-100.3044662475586	1457.023193359375	206.0342559814453	0.3873177468776703	1480.380737304688	126.1160888671875	4.468966484069824	1355.243774414062	44.74283218383789	60.75773239135742	1138.711181640625	23.7413387298584	-32.25414657592773	1116.420166015625	58.21972274780273	187.7108001708984	917.1986083984375	86.96273803710938	158.0607604980469	886.235595703125	10.75887775421143	98.70048522949219	1058.155151367188	21.29239273071289	220.8224639892578	749.7935791015625	85.31707000732422	177.8469390869141	829.579345703125	21.06958961486816	221.4123077392578	845.140625	70.90784454345703	-0.2589280903339386	1467.040405273438	453.9149780273438	-16.95812797546387	1401.808959960938	521.3953247070312	-22.35247421264648	1113.096435546875	567.6546630859375	-76.42719268798828	1093.59326171875	541.140625	127.8683929443359	905.4996948242188	525.9285888671875	86.04909515380859	880.256103515625	591.8345336914062	-8.346452713012695	1058.294799804688	574.7569580078125	155.2644805908203	734.7359008789062	526.122802734375	164.8047943115234	817.0386352539062	539.6740112304688	111.1330490112305	808.9554443359375	589.527099609375	26.06918907165527	1686.595825195312	367.1216430664062	180.967529296875	1699.881225585938	229.1023101806641	166.7625122070312	1697.770263671875	372.6980895996094	49.76065444946289	1686.892700195312	203.4620666503906	22.05147171020508	937.560546875	103.6256942749023	17.53403091430664	945.5046997070312	487.3647766113281	101.0475387573242	978.708984375	427.0951538085938	99.68816375732422	962.7285766601562	151.1414794921875	35.96002960205078	493.2427368164062	187.3189849853516	42.4879035949707	656.2200317382812	142.6401214599609	-48.52654647827148	32.18711853027344	235.7748565673828	-30.78752517700195	248.3999633789062	206.3492431640625	163.7401885986328	39.33600997924805	294.2863159179688	90.75157165527344	45.84780502319336	327.5997924804688	74.23134613037109	33.99448394775391	219.8397216796875	-116.4532699584961	39.40483856201172	290.8000183105469	116.9137725830078	510.8972778320312	468.7604370117188	78.81546020507812	798.2959594726562	490.2024536132812	-95.61447906494141	73.52434539794922	489.6051330566406	80.03886413574219	367.1864013671875	470.2589721679688	121.0706405639648	60.11812591552734	467.7484130859375	62.86478805541992	58.71539688110352	421.1825256347656	30.7070198059082	57.67196655273438	520.4833984375	-145.0388031005859	73.87279510498047	428.3143005371094	
457	4.56	-108.9542922973633	1008.973266601562	363.0908813476562	-104.3910980224609	1012.393249511719	229.8607940673828	-106.0169067382812	1110.239135742188	289.5196228027344	128.0422058105469	1293.865478515625	283.4582824707031	-116.1295776367188	1235.456665039062	286.8373718261719	-62.48097991943359	1508.071655273438	298.8849792480469	111.1744232177734	1405.312377929688	285.988525390625	-132.9674530029297	1384.68359375	388.1167907714844	-97.65696716308594	1456.991821289062	205.2910308837891	3.097322702407837	1480.113159179688	125.3441925048828	6.800171375274658	1354.900390625	44.05368423461914	62.30357360839844	1138.092651367188	23.35214233398438	-30.81112480163574	1116.176635742188	57.82370758056641	188.5007019042969	916.3604736328125	87.15326690673828	158.8563232421875	885.2921752929688	11.00638580322266	99.98690032958984	1057.42041015625	21.07253837585449	221.2162780761719	748.869873046875	85.916259765625	178.4590454101562	828.593017578125	21.47465515136719	222.0127105712891	844.1860961914062	71.29462432861328	2.330990791320801	1467.065063476562	453.1880493164062	-14.42745685577393	1401.840576171875	520.7147827148438	-20.34637260437012	1113.1396484375	566.9921875	-74.42489624023438	1093.717163085938	540.3988037109375	129.2531433105469	905.022216796875	525.8045654296875	87.29081726074219	879.973388671875	591.6185302734375	-6.542961597442627	1058.3017578125	574.1229248046875	156.2090759277344	734.1954345703125	526.1771240234375	165.9624938964844	816.5051879882812	539.6517944335938	111.7569046020508	808.385009765625	589.0101318359375	28.80471229553223	1686.425537109375	366.2744140625	183.8527374267578	1699.558227539062	228.3950500488281	169.5420227050781	1697.531860351562	371.9623718261719	52.67739105224609	1686.651733398438	202.6201629638672	24.15263748168945	937.29345703125	103.1543655395508	19.7428092956543	945.5988159179688	486.9381408691406	103.098991394043	978.7699584960938	426.6023864746094	101.7767791748047	962.4749755859375	150.6544189453125	36.59060287475586	493.1497192382812	187.0552978515625	43.66415023803711	656.0432739257812	142.287109375	-48.55310821533203	32.15403747558594	235.7676544189453	-30.62893486022949	248.4342498779297	206.1969909667969	163.6886901855469	39.39081573486328	294.1548156738281	90.65904998779297	45.89382553100586	327.5317077636719	74.26480865478516	33.95631790161133	219.7219543457031	-116.45166015625	39.42657470703125	290.7710571289062	121.7883682250977	511.4456787109375	468.0707702636719	81.46968841552734	798.5604858398438	490.0680847167969	-81.51432037353516	69.95528411865234	488.7871704101562	87.87618255615234	367.1082458496094	469.4598388671875	135.4901885986328	61.09316253662109	467.0257263183594	77.36845397949219	58.41450881958008	420.4169921875	45.15856552124023	56.95328140258789	519.7344970703125	-130.9542694091797	68.94419860839844	427.2387390136719	
458	4.57	-107.0142822265625	1008.837890625	362.7042236328125	-102.317497253418	1012.221130371094	229.4846801757812	-103.8836441040039	1110.2744140625	289.0693969726562	130.4547882080078	1293.6015625	282.8854675292969	-113.8454208374023	1235.484252929688	286.3142395019531	-59.74833297729492	1508.057006835938	298.1438903808594	113.7642364501953	1405.083862304688	285.3542785644531	-130.4508514404297	1384.87646484375	387.4596557617188	-95.00544738769531	1456.965576171875	204.59765625	5.817468166351318	1479.828857421875	124.6135330200195	9.093976974487305	1354.536987304688	43.39990615844727	63.71577072143555	1137.444213867188	22.99661064147949	-29.48257446289062	1115.940185546875	57.49342727661133	189.10791015625	915.4436645507812	87.31101989746094	159.4512786865234	884.3075561523438	11.21232795715332	101.1088027954102	1056.6396484375	20.87673187255859	221.3426971435547	747.8569946289062	86.46387481689453	178.8045196533203	827.532958984375	21.85514831542969	222.3934173583984	843.1364135742188	71.63449859619141	4.937424659729004	1467.093139648438	452.5026245117188	-11.88916397094727	1401.890380859375	520.07958984375	-18.37956428527832	1113.1884765625	566.3936157226562	-72.47592163085938	1093.87353515625	539.7164306640625	130.5061340332031	904.5059814453125	525.80126953125	88.43186950683594	879.6849975585938	591.479736328125	-4.786206722259521	1058.32080078125	573.555419921875	156.9970703125	733.6171875	526.3448486328125	166.9832611083984	815.93701171875	539.7301635742188	112.321418762207	807.8305053710938	588.641845703125	31.54315948486328	1686.2490234375	365.4415893554688	186.7443084716797	1699.220703125	227.71044921875	172.3273773193359	1697.296508789062	371.2437744140625	55.60288238525391	1686.3876953125	201.7999267578125	26.21809196472168	937.0206298828125	102.7339096069336	21.89427947998047	945.70654296875	486.5192565917969	105.0749588012695	978.830322265625	426.1560363769531	103.8316268920898	962.2156982421875	150.2169036865234	37.25288391113281	493.0512084960938	186.8056640625	44.84569931030273	655.8609008789062	141.986083984375	-48.56742477416992	32.1290283203125	235.7459259033203	-30.45007133483887	248.4570770263672	206.0478057861328	163.621337890625	39.45155715942383	294.019287109375	90.55548095703125	45.92216110229492	327.4725952148438	74.29262542724609	33.92276763916016	219.6117401123047	-116.4506759643555	39.43916702270508	290.7523803710938	126.7839965820312	512.0439453125	467.4502563476562	84.10097503662109	798.8629760742188	489.9546203613281	-67.48323059082031	66.72280883789062	487.9182739257812	95.79313659667969	367.1328125	468.6724548339844	149.6957855224609	62.08108139038086	465.8992614746094	91.59988403320312	58.28820037841797	419.3438415527344	59.50836944580078	56.3190803527832	518.7139282226562	-117.0018005371094	64.49476623535156	426.1594848632812	
459	4.58	-105.1379852294922	1008.694213867188	362.324462890625	-100.2835388183594	1012.050903320312	229.1179962158203	-101.7925720214844	1110.323364257812	288.6389465332031	132.8628082275391	1293.32275390625	282.3600769042969	-111.5676803588867	1235.52978515625	285.8197937011719	-57.00117492675781	1508.04833984375	297.4446411132812	116.3599243164062	1404.849975585938	284.7625122070312	-127.9371490478516	1385.088745117188	386.8543395996094	-92.34665679931641	1456.948608398438	203.9524993896484	8.554096221923828	1479.533081054688	123.9254531860352	11.36637020111084	1354.163208007812	42.77864074707031	65.00048065185547	1136.775146484375	22.67479705810547	-28.25708198547363	1115.72509765625	57.22163772583008	189.5425262451172	914.4537963867188	87.42579650878906	159.8418121337891	883.2880859375	11.3719310760498	102.0698852539062	1055.821166992188	20.70642280578613	221.1969299316406	746.7604370117188	86.95269775390625	178.8835296630859	826.4108276367188	22.19831657409668	222.5612640380859	841.9970092773438	71.91607666015625	7.562967300415039	1467.123657226562	451.8609008789062	-9.34554386138916	1401.95947265625	519.4894409179688	-16.44320297241211	1113.24462890625	565.860595703125	-70.57510375976562	1094.06005859375	539.096923828125	131.6320648193359	903.9533081054688	525.91650390625	89.48203277587891	879.3978271484375	591.4160766601562	-3.066457509994507	1058.354370117188	573.060302734375	157.6263122558594	733.0009765625	526.6295166015625	167.8685913085938	815.3311767578125	539.9127807617188	112.8547210693359	807.3094482421875	588.45361328125	34.29154968261719	1686.06884765625	364.6262512207031	189.6468048095703	1698.870239257812	227.0495452880859	175.1221923828125	1697.06298828125	370.5453186035156	58.54091262817383	1686.10498046875	201.0046997070312	28.25282096862793	936.7418212890625	102.3599853515625	23.99453544616699	945.8197021484375	486.114990234375	106.9867324829102	978.8958129882812	425.7507019042969	105.856559753418	961.9517822265625	149.8254089355469	37.95522689819336	492.9437866210938	186.5720367431641	46.0323486328125	655.668701171875	141.7410583496094	-48.57306671142578	32.1088981628418	235.7118530273438	-30.25701713562012	248.4667510986328	205.9037170410156	163.5394439697266	39.51556396484375	293.88330078125	90.44025421142578	45.92991256713867	327.4255981445312	74.30778503417969	33.89170074462891	219.5159912109375	-116.4518051147461	39.44631958007812	290.7443237304688	131.8998260498047	512.7047119140625	466.8964538574219	86.71840667724609	799.2094116210938	489.8672790527344	-53.54052734375	63.81399917602539	487.0063781738281	103.7676391601562	367.2676391601562	467.9042663574219	163.6920471191406	63.10744476318359	464.4185180664062	105.5646362304688	58.34225082397461	418.00244140625	73.74247741699219	55.7810173034668	517.4559326171875	-103.1951522827148	60.51919555664062	425.1136169433594	
